<?xml version="1.0" encoding="UTF-8" standalone="no"?>
<!-- Created with Inkscape (http://www.inkscape.org/) -->

<svg
   xmlns:dc="http://purl.org/dc/elements/1.1/"
   xmlns:cc="http://creativecommons.org/ns#"
   xmlns:rdf="http://www.w3.org/1999/02/22-rdf-syntax-ns#"
   xmlns:svg="http://www.w3.org/2000/svg"
   xmlns="http://www.w3.org/2000/svg"
   xmlns:sodipodi="http://sodipodi.sourceforge.net/DTD/sodipodi-0.dtd"
   xmlns:inkscape="http://www.inkscape.org/namespaces/inkscape"
   width="110mm"
   height="110mm"
   viewBox="0 0 110 110"
   version="1.1"
   id="svg846"
   inkscape:version="0.92.4 (5da689c313, 2019-01-14)"
   sodipodi:docname="category-icon.svg">
  <defs
     id="defs840" />
  <sodipodi:namedview
     id="base"
     pagecolor="#ffffff"
     bordercolor="#666666"
     borderopacity="1.0"
     inkscape:pageopacity="0.0"
     inkscape:pageshadow="2"
     inkscape:zoom="0.73956188"
     inkscape:cx="451.5578"
     inkscape:cy="328.55987"
     inkscape:document-units="mm"
     inkscape:current-layer="layer1"
     showgrid="false"
     inkscape:window-width="1920"
     inkscape:window-height="998"
     inkscape:window-x="-11"
     inkscape:window-y="1387"
     inkscape:window-maximized="1" />
  <metadata
     id="metadata843">
    <rdf:RDF>
      <cc:Work
         rdf:about="">
        <dc:format>image/svg+xml</dc:format>
        <dc:type
           rdf:resource="http://purl.org/dc/dcmitype/StillImage" />
        <dc:title></dc:title>
      </cc:Work>
    </rdf:RDF>
  </metadata>
  <g
     inkscape:label="Layer 1"
     inkscape:groupmode="layer"
     id="layer1"
     transform="translate(0,-187)">
    <path
       style="fill:#1ecfff;fill-opacity:1;stroke-width:0.85935783"
       d="m 79.900842,293.23882 c -10.60021,1.16577 -44.492083,0.8634 -51.800431,-0.46215 -6.987475,-1.26735 -12.821602,-4.46311 -16.833665,-9.22097 -4.6372943,-5.49932 -6.4866773,-11.00133 -7.1285433,-21.2078 -0.807161,-12.83488 -0.632549,-40.0164 0.296193,-46.10784 1.063574,-6.97577 4.582898,-13.54086 9.6859823,-18.06861 6.355492,-5.63897 13.866825,-7.3118 33.938674,-7.55841 29.51753,-0.36267 38.22848,0.62659 45.26799,5.14087 10.632358,6.81832 13.299288,14.82715 13.596628,40.83108 0.3313,28.97219 -0.48203,36.07506 -4.94571,43.19127 -1.55497,2.47899 -4.270998,5.68039 -6.035638,7.11421 -3.25089,2.64146 -11.30015,5.82692 -16.04148,6.34835 z m 13.17141,-14.81565 c 3.01273,-3.43386 4.73067,-7.99589 5.43495,-14.4327 l 0.43221,-3.95023 -6.95919,-7.1553 c -11.55222,-11.87774 -14.06638,-13.23005 -17.95466,-9.65743 -1.13862,1.04617 -5.4901,6.66544 -9.66995,12.48725 -4.17984,5.82181 -8.5211,11.06494 -9.64724,11.6514 -1.12613,0.58646 -2.510573,1.36319 -3.076536,1.72607 -2.074009,1.32983 -7.981715,0.62181 -13.131087,-1.57372 -7.343673,-3.13111 -8.793837,-2.53419 -14.228013,5.85667 -2.45375,3.78882 -4.39948,7.11602 -4.323842,7.39379 0.244831,0.89909 5.780721,3.5139 8.687997,4.10367 3.911831,0.79356 18.203303,1.21715 34.569051,1.02464 11.49194,-0.13519 14.85516,-0.49844 20.3967,-2.20302 5.66043,-1.74112 7.05224,-2.51584 9.46961,-5.27109 z M 24.926925,259.80109 c 5.411707,-3.24609 9.48886,-3.20052 16.835192,0.18815 6.649258,3.06713 7.909507,2.37027 15.692855,-8.6775 8.26946,-11.73775 12.62988,-16.25419 16.79967,-17.40073 5.99192,-1.64752 11.45159,0.94701 19.71119,9.36728 3.08463,3.14462 4.69052,4.26322 4.87915,3.39865 0.15466,-0.70881 0.21672,-6.48148 0.13791,-12.82817 -0.1937,-15.60063 -2.58069,-25.06096 -7.41066,-29.37057 -5.99829,-5.35208 -12.41192,-6.2375 -41.824098,-5.77404 -11.616964,0.18307 -19.004729,0.73324 -22.452342,1.67206 -9.194656,2.5038 -14.029374,8.62651 -15.106494,19.13092 -1.064103,10.3775 -0.610655,40.75138 0.70993,47.55409 l 1.308919,6.74262 4.019593,-6.19774 c 2.210778,-3.40874 5.225411,-6.921 6.699185,-7.80502 z m 12.063519,-19.22128 c -10.392019,-1.68196 -15.497025,-13.01925 -9.836786,-21.84573 3.885036,-6.05826 11.074508,-8.40288 17.618172,-5.74561 5.071122,2.0593 7.303319,4.90175 8.452972,10.76388 1.17118,5.97194 0.10941,9.28681 -4.243089,13.24711 -3.798291,3.45602 -6.948275,4.39655 -11.991269,3.58035 z m 6.337433,-9.08876 c 4.923059,-4.63486 2.025266,-11.68708 -4.746724,-11.55191 -6.899933,0.13774 -7.343538,11.46791 -0.503993,12.87248 2.9069,0.59696 3.325846,0.4916 5.250717,-1.32057 z"
       id="path865"
       inkscape:connector-curvature="0" />
  </g>
</svg>
