<?xml version="1.0" encoding="UTF-8" standalone="no"?>
<!-- Created with Inkscape (http://www.inkscape.org/) -->

<svg
        xmlns:dc="http://purl.org/dc/elements/1.1/"
        xmlns:cc="http://creativecommons.org/ns#"
        xmlns:rdf="http://www.w3.org/1999/02/22-rdf-syntax-ns#"
        xmlns="http://www.w3.org/2000/svg"
        xmlns:sodipodi="http://sodipodi.sourceforge.net/DTD/sodipodi-0.dtd"
        xmlns:inkscape="http://www.inkscape.org/namespaces/inkscape"
        width="377mm"
        height="91mm"
        viewBox="0 0 377 91"
        version="1.1"
        id="svg76"
        inkscape:version="0.92.4 (5da689c313, 2019-01-14)"
        sodipodi:docname="floworm-logo-blue.svg">
  <defs
          id="defs70"/>
  <sodipodi:namedview
          id="base"
          pagecolor="#ffffff"
          bordercolor="#666666"
          borderopacity="1.0"
          inkscape:pageopacity="0.0"
          inkscape:pageshadow="2"
          inkscape:zoom="1.4191406"
          inkscape:cx="781.27914"
          inkscape:cy="208.37627"
          inkscape:document-units="mm"
          inkscape:current-layer="layer1"
          showgrid="false"
          inkscape:window-width="2400"
          inkscape:window-height="1271"
          inkscape:window-x="198"
          inkscape:window-y="-11"
          inkscape:window-maximized="1"/>
  <metadata
          id="metadata73">
    <rdf:RDF>
      <cc:Work
              rdf:about="">
        <dc:format>image/svg+xml</dc:format>
        <dc:type
                rdf:resource="http://purl.org/dc/dcmitype/StillImage"/>
        <dc:title></dc:title>
      </cc:Work>
    </rdf:RDF>
  </metadata>
  <g
          inkscape:label="Layer 1"
          inkscape:groupmode="layer"
          id="layer1"
          transform="translate(0,-206)">
    <path
            style="fill:#1ecfff;stroke-width:0.26458335;fill-opacity:1"
            d="m 82.000138,287.94244 c -4.83255,-1.07517 -8.97098,-3.23511 -12.48356,-6.51547 -3.900879,-3.64299 -6.403938,-7.78896 -7.715645,-12.77988 -0.615775,-2.34298 -0.695372,-3.14555 -0.695372,-7.01146 0,-3.86591 0.0796,-4.66848 0.695372,-7.01146 2.593274,-9.86718 10.490165,-17.29226 20.561435,-19.33296 3.05396,-0.61881 9.82541,-0.41584 12.82012,0.38427 7.206572,1.92542 13.805522,7.39654 17.051882,14.13752 3.43978,7.14263 3.43978,16.50262 0,23.64526 -3.24572,6.73965 -9.83466,12.2034 -17.051882,14.13994 -2.82463,0.75791 -10.43032,0.95652 -13.18235,0.34424 z m 10.89737,-13.30975 c 3.95352,-1.60925 7.0377,-5.10251 8.097562,-9.1716 0.51931,-1.99378 0.51931,-5.65714 0,-7.65093 -1.060212,-4.07045 -4.150202,-7.56932 -8.097562,-9.16909 -2.17718,-0.88235 -6.71208,-1.01586 -9.16801,-0.26989 -3.34173,1.01502 -6.31859,3.49105 -7.86002,6.53763 -1.04552,2.06643 -1.4505,3.94456 -1.4505,6.72682 0,1.38244 0.17013,3.15274 0.37806,3.93398 1.15868,4.35331 4.29074,7.73025 8.55109,9.21965 1.57558,0.55082 2.14513,0.61078 4.9552,0.52172 2.48746,-0.0788 3.48231,-0.22571 4.59418,-0.67829 z m 123.246382,13.30975 c -4.83255,-1.07517 -8.97098,-3.23511 -12.48356,-6.51547 -3.90088,-3.64299 -6.40394,-7.78896 -7.71565,-12.77988 -0.61577,-2.34298 -0.69537,-3.14555 -0.69537,-7.01146 0,-3.86591 0.0796,-4.66848 0.69537,-7.01146 2.59328,-9.86718 10.49016,-17.29226 20.56143,-19.33296 3.05397,-0.61881 9.82542,-0.41584 12.82013,0.38427 7.20657,1.92542 13.80553,7.39654 17.05188,14.13752 3.43978,7.14263 3.43978,16.50262 0,23.64526 -3.24571,6.73965 -9.83466,12.2034 -17.05188,14.13994 -2.82463,0.75791 -10.43032,0.95652 -13.18235,0.34424 z m 10.89736,-13.30975 c 3.95352,-1.60925 7.03771,-5.10251 8.09757,-9.1716 0.22282,-0.85546 0.40513,-2.57692 0.40513,-3.82546 0,-3.92181 -1.23621,-7.18663 -3.65144,-9.64346 -2.86455,-2.91389 -5.04956,-3.87388 -9.225,-4.05302 -3.57741,-0.15348 -5.72903,0.38653 -8.25148,2.07096 -3.91678,2.61553 -5.8533,6.46173 -5.8533,11.62552 0,1.38244 0.17013,3.15274 0.37806,3.93398 1.15868,4.35331 4.29074,7.73025 8.55109,9.21965 1.57558,0.55082 2.14513,0.61078 4.95519,0.52172 2.48747,-0.0788 3.48232,-0.22571 4.59418,-0.67829 z m -56.76871,12.46493 -6.13702,-0.0717 -0.66015,-2.17798 c -0.36307,-1.19788 -2.39636,-7.9525 -4.51841,-15.01026 -2.12205,-7.05776 -3.88799,-12.92948 -3.9243,-13.04825 -0.0502,-0.16427 -5.96838,19.21833 -8.85144,28.9894 l -0.37083,1.25677 -6.39624,-5.3e-4 -6.39624,-5.3e-4 -7.9103,-24.93645 c -4.35067,-13.71505 -7.96671,-25.14678 -8.03565,-25.40385 -0.11789,-0.43958 0.29695,-0.46321 6.967,-0.39688 l 7.09236,0.0705 4.14698,15.02174 c 2.28084,8.26196 4.19899,15.07375 4.26256,15.13732 0.0636,0.0636 2.13382,-6.72598 4.60057,-15.08789 l 4.485,-15.20346 6.35094,0.003 6.35095,0.003 4.34694,14.87944 c 2.39081,8.1837 4.42316,15.1031 4.51633,15.37645 0.10925,0.32055 0.61746,-1.08857 1.43135,-3.96875 0.69407,-2.45616 1.71778,-5.89451 2.2749,-7.64076 0.55712,-1.74625 2.40041,-7.69937 4.0962,-13.22916 5.87287,-19.15084 6.09495,-19.68216 9.54987,-22.84797 3.07957,-2.82186 6.90783,-4.27183 11.2787,-4.27183 3.18677,0 5.29213,0.37528 6.95571,1.23984 1.82628,0.94911 2.48258,1.5887 3.20744,3.12579 1.15874,2.45716 0.72441,5.54639 -1.05448,7.50023 -1.40558,1.5438 -4.59114,2.36311 -6.90434,1.77577 -3.08281,-0.78276 -5.43278,0.78111 -6.18593,4.11664 -0.17685,0.78322 -1.03557,3.44809 -1.90829,5.92194 -2.33566,6.62084 -3.34237,9.78621 -10.12396,31.83236 -2.83403,9.21311 -5.1951,16.78855 -5.24682,16.83432 -0.2662,0.23557 -1.67931,0.27646 -7.2894,0.21094 z M 10.648114,267.85334 v -19.1823 H 7.0762387 3.5043637 v -6.2177 -6.21771 h 3.571875 3.5718753 l 0.0016,-1.25677 c 0.0023,-1.86666 0.695641,-6.07833 1.276098,-7.75179 2.086509,-6.01544 6.342872,-9.67414 13.408969,-11.52612 2.27688,-0.59676 3.359258,-0.71127 7.802957,-0.82549 5.479301,-0.14084 8.976188,0.15317 15.544271,1.30696 l 3.241144,0.56936 v 35.14192 35.14193 H 45.30857 38.693986 v -30.27389 -30.27389 l -2.050521,-0.0871 c -5.196162,-0.22059 -7.933436,0.50617 -10.1308,2.68977 -1.667579,1.65713 -2.370762,3.35379 -2.370762,5.72023 v 1.42483 h 4.101042 4.101041 v 6.21771 6.2177 h -4.101041 -4.101042 v 19.1823 19.18229 h -6.746875 -6.746875 z m 247.385416,-6.21771 v -25.4 h 6.61459 6.61458 l 0.007,4.03489 0.007,4.0349 0.84748,-1.5875 c 2.26484,-4.24251 8.03987,-7.54063 13.20366,-7.54063 h 1.54517 v 7.27605 7.27604 l -1.91823,0.005 c -5.45661,0.0131 -10.41037,2.64079 -12.23012,6.48747 -1.22833,2.59645 -1.26365,3.03548 -1.38838,17.25429 l -0.11893,13.5599 h -6.59196 -6.59196 v -25.4 z m 35.98334,0 v -25.4 h 6.61458 6.61458 v 2.4939 2.4939 l 1.49122,-1.56338 c 1.85743,-1.94733 3.50692,-3.0178 5.97898,-3.88015 2.55312,-0.89064 8.34636,-1.15111 11.11914,-0.49993 3.26509,0.76678 6.25406,2.62049 8.11522,5.0329 l 1.10818,1.43642 1.90249,-1.91022 c 3.46088,-3.47495 7.31191,-4.92636 13.07123,-4.92636 3.97248,0 6.31383,0.47154 9.20417,1.85369 2.61432,1.25016 4.95808,3.32782 6.71168,5.94968 1.54903,2.31601 2.29336,4.17307 2.97006,7.41017 0.45765,2.18936 0.49805,3.77245 0.50125,19.64531 l 0.003,17.26407 h -6.60342 -6.60339 l -0.0773,-16.60261 -0.0773,-16.6026 -0.63323,-1.57186 c -0.81402,-2.02067 -2.62953,-3.87146 -4.38414,-4.46932 -1.85317,-0.63143 -5.03407,-0.5832 -6.87129,0.10419 -1.73677,0.64981 -3.50946,2.27997 -4.33599,3.98735 -1.28307,2.65044 -1.36062,3.78698 -1.36554,20.00745 l -0.005,15.1474 h -6.60162 -6.60159 l -0.0879,-16.47032 c -0.0986,-18.47286 -0.0522,-18.00641 -2.03959,-20.52066 -1.46397,-1.85205 -2.98321,-2.53701 -5.88841,-2.65482 -4.87087,-0.19753 -7.96412,2.08005 -9.41205,6.93012 -0.33988,1.13854 -0.42537,3.93989 -0.51993,17.03911 l -0.11317,15.67657 h -6.59288 -6.59286 z"
            id="path224"
            inkscape:connector-curvature="0"/>
  </g>
</svg>
