<?xml version="1.0" encoding="UTF-8" standalone="no"?>
<!-- Created with Inkscape (http://www.inkscape.org/) -->

<svg
        xmlns:dc="http://purl.org/dc/elements/1.1/"
        xmlns:cc="http://creativecommons.org/ns#"
        xmlns:rdf="http://www.w3.org/1999/02/22-rdf-syntax-ns#"
        xmlns="http://www.w3.org/2000/svg"
        xmlns:sodipodi="http://sodipodi.sourceforge.net/DTD/sodipodi-0.dtd"
        xmlns:inkscape="http://www.inkscape.org/namespaces/inkscape"
        width="100mm"
        height="100mm"
        viewBox="0 0 100 100"
        version="1.1"
        id="svg1055"
        sodipodi:docname="minus-icon.svg"
        inkscape:version="0.92.4 (5da689c313, 2019-01-14)">
  <defs
          id="defs1049"/>
  <sodipodi:namedview
          id="base"
          pagecolor="#ffffff"
          bordercolor="#666666"
          borderopacity="1.0"
          inkscape:pageopacity="0.0"
          inkscape:pageshadow="2"
          inkscape:zoom="2.0069679"
          inkscape:cx="177.10975"
          inkscape:cy="141.03752"
          inkscape:document-units="mm"
          inkscape:current-layer="layer1"
          showgrid="false"
          inkscape:window-width="2400"
          inkscape:window-height="1271"
          inkscape:window-x="198"
          inkscape:window-y="-11"
          inkscape:window-maximized="1"/>
  <metadata
          id="metadata1052">
    <rdf:RDF>
      <cc:Work
              rdf:about="">
        <dc:format>image/svg+xml</dc:format>
        <dc:type
                rdf:resource="http://purl.org/dc/dcmitype/StillImage"/>
        <dc:title></dc:title>
      </cc:Work>
    </rdf:RDF>
  </metadata>
  <g
          inkscape:label="Layer 1"
          inkscape:groupmode="layer"
          id="layer1"
          transform="translate(0,-197)">
    <path
            style="opacity:0;fill:#1ecfff;fill-opacity:0.94285715;stroke:#464646;stroke-width:0.70465183;stroke-opacity:1"
            d="m 239.22594,24.225396 c -10.25357,1.280712 -17.62132,9.507105 -23.67395,17.165847 -32.63529,39.432333 -65.47316,78.693587 -98.10404,118.121477 -6.72212,9.28424 -16.73078,17.96218 -16.94758,30.30998 -0.708781,10.0389 5.34477,18.68359 11.74648,25.76863 35.73369,42.98547 71.20516,86.1755 107.25383,128.90004 5.71353,6.91024 13.41561,13.71507 23.01456,13.09213 12.03957,-0.59901 24.54981,-9.00273 27.17451,-21.18084 1.57204,-8.91917 -0.55834,-18.4321 -6.68122,-25.25952 -20.37679,-25.30195 -41.78904,-49.76001 -62.43284,-74.84328 -12.35388,-15.13211 -25.66365,-29.53319 -37.28148,-45.23026 -0.52985,-2.05642 2.86654,-3.69418 3.654,-5.56565 31.96174,-38.33974 64.34213,-76.33807 95.88301,-115.029656 6.85528,-7.728999 9.20969,-19.302932 5.89652,-29.048238 -4.89662,-10.53004 -16.30376,-18.022392 -28.06497,-17.210294 l -0.70464,-0.0039 -0.0454,-2.5e-4 h -0.006 z"
            id="path1666"
            inkscape:connector-curvature="0"
            transform="matrix(0.26458333,0,0,0.26458333,0,197)"/>
    <path
            style="opacity:0;fill:#1ecfff;fill-opacity:0.94285715;stroke:#464646;stroke-width:0.70465183;stroke-opacity:1"
            d="m 239.22594,24.225396 c -10.25357,1.280712 -17.62132,9.507105 -23.67395,17.165847 -32.63529,39.432333 -65.47316,78.693587 -98.10404,118.121477 -6.72212,9.28424 -16.73078,17.96218 -16.94758,30.30998 -0.708781,10.0389 5.34477,18.68359 11.74648,25.76863 35.73369,42.98547 71.20516,86.1755 107.25383,128.90004 5.71353,6.91024 13.41561,13.71507 23.01456,13.09213 12.03957,-0.59901 24.54981,-9.00273 27.17451,-21.18084 1.57204,-8.91917 -0.55834,-18.4321 -6.68122,-25.25952 -20.37679,-25.30195 -41.78904,-49.76001 -62.43284,-74.84328 -12.35388,-15.13211 -25.66365,-29.53319 -37.28148,-45.23026 -0.52985,-2.05642 2.86654,-3.69418 3.654,-5.56565 31.96174,-38.33974 64.34213,-76.33807 95.88301,-115.029656 6.85528,-7.728999 9.20969,-19.302932 5.89652,-29.048238 -4.89662,-10.53004 -16.30376,-18.022392 -28.06497,-17.210294 l -0.70464,-0.0039 -0.0454,-2.5e-4 h -0.006 z"
            id="path1668"
            inkscape:connector-curvature="0"
            transform="matrix(0.26458333,0,0,0.26458333,0,197)"/>
    <path
            style="opacity:0;fill:#1ecfff;fill-opacity:0.94285715;stroke:#464646;stroke-width:0.70465183;stroke-opacity:1"
            d="m 239.22594,24.225396 c -10.25357,1.280712 -17.62132,9.507105 -23.67395,17.165847 -32.63529,39.432333 -65.47316,78.693587 -98.10404,118.121477 -6.72212,9.28424 -16.73078,17.96218 -16.94758,30.30998 -0.708781,10.0389 5.34477,18.68359 11.74648,25.76863 35.73369,42.98547 71.20516,86.1755 107.25383,128.90004 5.71353,6.91024 13.41561,13.71507 23.01456,13.09213 12.03957,-0.59901 24.54981,-9.00273 27.17451,-21.18084 1.57204,-8.91917 -0.55834,-18.4321 -6.68122,-25.25952 -20.37679,-25.30195 -41.78904,-49.76001 -62.43284,-74.84328 -12.35388,-15.13211 -25.66365,-29.53319 -37.28148,-45.23026 -0.52985,-2.05642 2.86654,-3.69418 3.654,-5.56565 31.96174,-38.33974 64.34213,-76.33807 95.88301,-115.029656 6.85528,-7.728999 9.20969,-19.302932 5.89652,-29.048238 -4.89662,-10.53004 -16.30376,-18.022392 -28.06497,-17.210294 l -0.70464,-0.0039 -0.0454,-2.5e-4 h -0.006 z"
            id="path1670"
            inkscape:connector-curvature="0"
            transform="matrix(0.26458333,0,0,0.26458333,0,197)"/>
    <path
            style="opacity:0;fill:#ff0000;fill-opacity:0.94285715;stroke:#464646;stroke-width:0.70465183;stroke-opacity:1"
            d="m 239.22594,24.225396 c -10.25357,1.280712 -17.62132,9.507105 -23.67395,17.165847 -32.63529,39.432333 -65.47316,78.693587 -98.10404,118.121477 -6.72212,9.28424 -16.73078,17.96218 -16.94758,30.30998 -0.708781,10.0389 5.34477,18.68359 11.74648,25.76863 35.73369,42.98547 71.20516,86.1755 107.25383,128.90004 5.71353,6.91024 13.41561,13.71507 23.01456,13.09213 12.03957,-0.59901 24.54981,-9.00273 27.17451,-21.18084 1.57204,-8.91917 -0.55834,-18.4321 -6.68122,-25.25952 -20.37679,-25.30195 -41.78904,-49.76001 -62.43284,-74.84328 -12.35388,-15.13211 -25.66365,-29.53319 -37.28148,-45.23026 -0.52985,-2.05642 2.86654,-3.69418 3.654,-5.56565 31.96174,-38.33974 64.34213,-76.33807 95.88301,-115.029656 6.85528,-7.728999 9.20969,-19.302932 5.89652,-29.048238 -4.89662,-10.53004 -16.30376,-18.022392 -28.06497,-17.210294 l -0.70464,-0.0039 -0.0454,-2.5e-4 h -0.006 z"
            id="path1672"
            inkscape:connector-curvature="0"
            transform="matrix(0.26458333,0,0,0.26458333,0,197)"/>
    <path
            style="opacity:0;fill:#ff0000;fill-opacity:0.94285715;stroke:#464646;stroke-width:0.70465183;stroke-opacity:1"
            d="m 239.22594,24.225396 c -10.25357,1.280712 -17.62132,9.507105 -23.67395,17.165847 -32.63529,39.432333 -65.47316,78.693587 -98.10404,118.121477 -6.72212,9.28424 -16.73078,17.96218 -16.94758,30.30998 -0.708781,10.0389 5.34477,18.68359 11.74648,25.76863 35.73369,42.98547 71.20516,86.1755 107.25383,128.90004 5.71353,6.91024 13.41561,13.71507 23.01456,13.09213 12.03957,-0.59901 24.54981,-9.00273 27.17451,-21.18084 1.57204,-8.91917 -0.55834,-18.4321 -6.68122,-25.25952 -20.37679,-25.30195 -41.78904,-49.76001 -62.43284,-74.84328 -12.35388,-15.13211 -25.66365,-29.53319 -37.28148,-45.23026 -0.52985,-2.05642 2.86654,-3.69418 3.654,-5.56565 31.96174,-38.33974 64.34213,-76.33807 95.88301,-115.029656 6.85528,-7.728999 9.20969,-19.302932 5.89652,-29.048238 -4.89662,-10.53004 -16.30376,-18.022392 -28.06497,-17.210294 l -0.70464,-0.0039 -0.0454,-2.5e-4 h -0.006 z"
            id="path1674"
            inkscape:connector-curvature="0"
            transform="matrix(0.26458333,0,0,0.26458333,0,197)"/>
    <path
            style="opacity:0;fill:#ff0000;fill-opacity:0.94285715;stroke:#464646;stroke-width:0.70465183;stroke-opacity:1"
            d="m 239.22594,24.225396 c -10.25357,1.280712 -17.62132,9.507105 -23.67395,17.165847 -32.63529,39.432333 -65.47316,78.693587 -98.10404,118.121477 -6.72212,9.28424 -16.73078,17.96218 -16.94758,30.30998 -0.708781,10.0389 5.34477,18.68359 11.74648,25.76863 35.73369,42.98547 71.20516,86.1755 107.25383,128.90004 5.71353,6.91024 13.41561,13.71507 23.01456,13.09213 12.03957,-0.59901 24.54981,-9.00273 27.17451,-21.18084 1.57204,-8.91917 -0.55834,-18.4321 -6.68122,-25.25952 -20.37679,-25.30195 -41.78904,-49.76001 -62.43284,-74.84328 -12.35388,-15.13211 -25.66365,-29.53319 -37.28148,-45.23026 -0.52985,-2.05642 2.86654,-3.69418 3.654,-5.56565 31.96174,-38.33974 64.34213,-76.33807 95.88301,-115.029656 6.85528,-7.728999 9.20969,-19.302932 5.89652,-29.048238 -4.89662,-10.53004 -16.30376,-18.022392 -28.06497,-17.210294 l -0.70464,-0.0039 -0.0454,-2.5e-4 h -0.006 z"
            id="path1676"
            inkscape:connector-curvature="0"
            transform="matrix(0.26458333,0,0,0.26458333,0,197)"/>
    <path
            style="opacity:0;fill:#ff0000;fill-opacity:0.94285715;stroke:#464646;stroke-width:0.70465183;stroke-opacity:1"
            d="m 239.22594,24.225396 c -10.25357,1.280712 -17.62132,9.507105 -23.67395,17.165847 -32.63529,39.432333 -65.47316,78.693587 -98.10404,118.121477 -6.72212,9.28424 -16.73078,17.96218 -16.94758,30.30998 -0.708781,10.0389 5.34477,18.68359 11.74648,25.76863 35.73369,42.98547 71.20516,86.1755 107.25383,128.90004 5.71353,6.91024 13.41561,13.71507 23.01456,13.09213 12.03957,-0.59901 24.54981,-9.00273 27.17451,-21.18084 1.57204,-8.91917 -0.55834,-18.4321 -6.68122,-25.25952 -20.37679,-25.30195 -41.78904,-49.76001 -62.43284,-74.84328 -12.35388,-15.13211 -25.66365,-29.53319 -37.28148,-45.23026 -0.52985,-2.05642 2.86654,-3.69418 3.654,-5.56565 31.96174,-38.33974 64.34213,-76.33807 95.88301,-115.029656 6.85528,-7.728999 9.20969,-19.302932 5.89652,-29.048238 -4.89662,-10.53004 -16.30376,-18.022392 -28.06497,-17.210294 l -0.70464,-0.0039 -0.0454,-2.5e-4 h -0.006 z"
            id="path1678"
            inkscape:connector-curvature="0"
            transform="matrix(0.26458333,0,0,0.26458333,0,197)"/>
    <path
            style="opacity:0;fill:#00ffff;fill-opacity:0.94285715;stroke:#464646;stroke-width:0.70465183;stroke-opacity:1"
            d="m 230.94078,18.423028 c -9.53534,-0.07556 -17.47851,6.337031 -22.92183,13.620975 -32.60014,38.426286 -64.53115,77.408597 -96.83243,116.081607 -6.73904,9.03529 -15.351116,17.1053 -19.598892,27.72929 -1.476632,7.40335 -1.27637,15.62753 3.04294,22.12772 6.128262,10.4519 15.182462,18.82502 22.520892,28.41 30.82751,36.8513 61.26099,74.01606 92.25704,110.72546 6.56682,8.4884 18.19466,14.93097 28.94351,10.81224 12.0553,-3.09756 22.05983,-14.73045 20.56702,-27.564 -0.56328,-12.18321 -10.46482,-20.75876 -17.30525,-29.85549 -28.46012,-34.04697 -57.17414,-67.90817 -85.55877,-102.00109 -1.37618,-2.1231 -4.90061,-4.82156 -1.69557,-7.15387 26.81982,-32.81619 54.40486,-65.0407 81.47032,-97.652583 7.29141,-8.971812 15.72185,-17.393178 20.901,-27.82774 5.04705,-11.205001 1.63373,-26.203152 -9.59151,-32.26697 -4.77719,-3.243231 -10.36555,-5.347585 -16.19847,-5.185549 z"
            id="path1699"
            inkscape:connector-curvature="0"
            transform="matrix(0.26458333,0,0,0.26458333,0,197)"/>
    <path
            style="fill:#1ecfff;stroke-width:0.26458332;fill-opacity:1"
            d="m 15.963071,257.36922 c -5.820384,-1.05768 -8.6291854,-5.22034 -8.2675533,-12.25256 0.2749435,-5.34649 2.3760723,-8.42528 6.7620773,-9.90848 l 1.774795,-0.60018 31.485416,-0.0796 c 19.487793,-0.0493 32.29705,0.0194 33.615389,0.18005 5.386888,0.65666 8.23876,3.09815 9.26292,7.92999 0.695275,3.28021 0.287229,7.50656 -0.95889,9.93174 -1.35491,2.63691 -4.076636,4.4078 -7.544932,4.9091 -2.902365,0.4195 -63.772537,0.31817 -66.129222,-0.11008 z"
            id="path6172"
            inkscape:connector-curvature="0"/>
  </g>
</svg>
