<?xml version="1.0" encoding="UTF-8" standalone="no"?>
<!-- Created with Inkscape (http://www.inkscape.org/) -->

<svg
        xmlns:dc="http://purl.org/dc/elements/1.1/"
        xmlns:cc="http://creativecommons.org/ns#"
        xmlns:rdf="http://www.w3.org/1999/02/22-rdf-syntax-ns#"
        xmlns="http://www.w3.org/2000/svg"
        xmlns:sodipodi="http://sodipodi.sourceforge.net/DTD/sodipodi-0.dtd"
        xmlns:inkscape="http://www.inkscape.org/namespaces/inkscape"
        width="100mm"
        height="100mm"
        viewBox="0 0 100 100"
        version="1.1"
        id="svg1055"
        sodipodi:docname="plus-icon.svg"
        inkscape:version="0.92.4 (5da689c313, 2019-01-14)">
    <defs
            id="defs1049"/>
    <sodipodi:namedview
            id="base"
            pagecolor="#ffffff"
            bordercolor="#666666"
            borderopacity="1.0"
            inkscape:pageopacity="0.0"
            inkscape:pageshadow="2"
            inkscape:zoom="2.0069679"
            inkscape:cx="177.10975"
            inkscape:cy="141.03752"
            inkscape:document-units="mm"
            inkscape:current-layer="layer1"
            showgrid="false"
            inkscape:window-width="2400"
            inkscape:window-height="1271"
            inkscape:window-x="198"
            inkscape:window-y="-11"
            inkscape:window-maximized="1"/>
    <metadata
            id="metadata1052">
        <rdf:RDF>
            <cc:Work
                    rdf:about="">
                <dc:format>image/svg+xml</dc:format>
                <dc:type
                        rdf:resource="http://purl.org/dc/dcmitype/StillImage"/>
                <dc:title></dc:title>
            </cc:Work>
        </rdf:RDF>
    </metadata>
    <g
            inkscape:label="Layer 1"
            inkscape:groupmode="layer"
            id="layer1"
            transform="translate(0,-197)">
        <path
                style="opacity:0;fill:#1ecfff;fill-opacity:0.94285715;stroke:#464646;stroke-width:0.70465183;stroke-opacity:1"
                d="m 239.22594,24.225396 c -10.25357,1.280712 -17.62132,9.507105 -23.67395,17.165847 -32.63529,39.432333 -65.47316,78.693587 -98.10404,118.121477 -6.72212,9.28424 -16.73078,17.96218 -16.94758,30.30998 -0.708781,10.0389 5.34477,18.68359 11.74648,25.76863 35.73369,42.98547 71.20516,86.1755 107.25383,128.90004 5.71353,6.91024 13.41561,13.71507 23.01456,13.09213 12.03957,-0.59901 24.54981,-9.00273 27.17451,-21.18084 1.57204,-8.91917 -0.55834,-18.4321 -6.68122,-25.25952 -20.37679,-25.30195 -41.78904,-49.76001 -62.43284,-74.84328 -12.35388,-15.13211 -25.66365,-29.53319 -37.28148,-45.23026 -0.52985,-2.05642 2.86654,-3.69418 3.654,-5.56565 31.96174,-38.33974 64.34213,-76.33807 95.88301,-115.029656 6.85528,-7.728999 9.20969,-19.302932 5.89652,-29.048238 -4.89662,-10.53004 -16.30376,-18.022392 -28.06497,-17.210294 l -0.70464,-0.0039 -0.0454,-2.5e-4 h -0.006 z"
                id="path1666"
                inkscape:connector-curvature="0"
                transform="matrix(0.26458333,0,0,0.26458333,0,197)"/>
        <path
                style="opacity:0;fill:#1ecfff;fill-opacity:0.94285715;stroke:#464646;stroke-width:0.70465183;stroke-opacity:1"
                d="m 239.22594,24.225396 c -10.25357,1.280712 -17.62132,9.507105 -23.67395,17.165847 -32.63529,39.432333 -65.47316,78.693587 -98.10404,118.121477 -6.72212,9.28424 -16.73078,17.96218 -16.94758,30.30998 -0.708781,10.0389 5.34477,18.68359 11.74648,25.76863 35.73369,42.98547 71.20516,86.1755 107.25383,128.90004 5.71353,6.91024 13.41561,13.71507 23.01456,13.09213 12.03957,-0.59901 24.54981,-9.00273 27.17451,-21.18084 1.57204,-8.91917 -0.55834,-18.4321 -6.68122,-25.25952 -20.37679,-25.30195 -41.78904,-49.76001 -62.43284,-74.84328 -12.35388,-15.13211 -25.66365,-29.53319 -37.28148,-45.23026 -0.52985,-2.05642 2.86654,-3.69418 3.654,-5.56565 31.96174,-38.33974 64.34213,-76.33807 95.88301,-115.029656 6.85528,-7.728999 9.20969,-19.302932 5.89652,-29.048238 -4.89662,-10.53004 -16.30376,-18.022392 -28.06497,-17.210294 l -0.70464,-0.0039 -0.0454,-2.5e-4 h -0.006 z"
                id="path1668"
                inkscape:connector-curvature="0"
                transform="matrix(0.26458333,0,0,0.26458333,0,197)"/>
        <path
                style="opacity:0;fill:#1ecfff;fill-opacity:0.94285715;stroke:#464646;stroke-width:0.70465183;stroke-opacity:1"
                d="m 239.22594,24.225396 c -10.25357,1.280712 -17.62132,9.507105 -23.67395,17.165847 -32.63529,39.432333 -65.47316,78.693587 -98.10404,118.121477 -6.72212,9.28424 -16.73078,17.96218 -16.94758,30.30998 -0.708781,10.0389 5.34477,18.68359 11.74648,25.76863 35.73369,42.98547 71.20516,86.1755 107.25383,128.90004 5.71353,6.91024 13.41561,13.71507 23.01456,13.09213 12.03957,-0.59901 24.54981,-9.00273 27.17451,-21.18084 1.57204,-8.91917 -0.55834,-18.4321 -6.68122,-25.25952 -20.37679,-25.30195 -41.78904,-49.76001 -62.43284,-74.84328 -12.35388,-15.13211 -25.66365,-29.53319 -37.28148,-45.23026 -0.52985,-2.05642 2.86654,-3.69418 3.654,-5.56565 31.96174,-38.33974 64.34213,-76.33807 95.88301,-115.029656 6.85528,-7.728999 9.20969,-19.302932 5.89652,-29.048238 -4.89662,-10.53004 -16.30376,-18.022392 -28.06497,-17.210294 l -0.70464,-0.0039 -0.0454,-2.5e-4 h -0.006 z"
                id="path1670"
                inkscape:connector-curvature="0"
                transform="matrix(0.26458333,0,0,0.26458333,0,197)"/>
        <path
                style="opacity:0;fill:#ff0000;fill-opacity:0.94285715;stroke:#464646;stroke-width:0.70465183;stroke-opacity:1"
                d="m 239.22594,24.225396 c -10.25357,1.280712 -17.62132,9.507105 -23.67395,17.165847 -32.63529,39.432333 -65.47316,78.693587 -98.10404,118.121477 -6.72212,9.28424 -16.73078,17.96218 -16.94758,30.30998 -0.708781,10.0389 5.34477,18.68359 11.74648,25.76863 35.73369,42.98547 71.20516,86.1755 107.25383,128.90004 5.71353,6.91024 13.41561,13.71507 23.01456,13.09213 12.03957,-0.59901 24.54981,-9.00273 27.17451,-21.18084 1.57204,-8.91917 -0.55834,-18.4321 -6.68122,-25.25952 -20.37679,-25.30195 -41.78904,-49.76001 -62.43284,-74.84328 -12.35388,-15.13211 -25.66365,-29.53319 -37.28148,-45.23026 -0.52985,-2.05642 2.86654,-3.69418 3.654,-5.56565 31.96174,-38.33974 64.34213,-76.33807 95.88301,-115.029656 6.85528,-7.728999 9.20969,-19.302932 5.89652,-29.048238 -4.89662,-10.53004 -16.30376,-18.022392 -28.06497,-17.210294 l -0.70464,-0.0039 -0.0454,-2.5e-4 h -0.006 z"
                id="path1672"
                inkscape:connector-curvature="0"
                transform="matrix(0.26458333,0,0,0.26458333,0,197)"/>
        <path
                style="opacity:0;fill:#ff0000;fill-opacity:0.94285715;stroke:#464646;stroke-width:0.70465183;stroke-opacity:1"
                d="m 239.22594,24.225396 c -10.25357,1.280712 -17.62132,9.507105 -23.67395,17.165847 -32.63529,39.432333 -65.47316,78.693587 -98.10404,118.121477 -6.72212,9.28424 -16.73078,17.96218 -16.94758,30.30998 -0.708781,10.0389 5.34477,18.68359 11.74648,25.76863 35.73369,42.98547 71.20516,86.1755 107.25383,128.90004 5.71353,6.91024 13.41561,13.71507 23.01456,13.09213 12.03957,-0.59901 24.54981,-9.00273 27.17451,-21.18084 1.57204,-8.91917 -0.55834,-18.4321 -6.68122,-25.25952 -20.37679,-25.30195 -41.78904,-49.76001 -62.43284,-74.84328 -12.35388,-15.13211 -25.66365,-29.53319 -37.28148,-45.23026 -0.52985,-2.05642 2.86654,-3.69418 3.654,-5.56565 31.96174,-38.33974 64.34213,-76.33807 95.88301,-115.029656 6.85528,-7.728999 9.20969,-19.302932 5.89652,-29.048238 -4.89662,-10.53004 -16.30376,-18.022392 -28.06497,-17.210294 l -0.70464,-0.0039 -0.0454,-2.5e-4 h -0.006 z"
                id="path1674"
                inkscape:connector-curvature="0"
                transform="matrix(0.26458333,0,0,0.26458333,0,197)"/>
        <path
                style="opacity:0;fill:#ff0000;fill-opacity:0.94285715;stroke:#464646;stroke-width:0.70465183;stroke-opacity:1"
                d="m 239.22594,24.225396 c -10.25357,1.280712 -17.62132,9.507105 -23.67395,17.165847 -32.63529,39.432333 -65.47316,78.693587 -98.10404,118.121477 -6.72212,9.28424 -16.73078,17.96218 -16.94758,30.30998 -0.708781,10.0389 5.34477,18.68359 11.74648,25.76863 35.73369,42.98547 71.20516,86.1755 107.25383,128.90004 5.71353,6.91024 13.41561,13.71507 23.01456,13.09213 12.03957,-0.59901 24.54981,-9.00273 27.17451,-21.18084 1.57204,-8.91917 -0.55834,-18.4321 -6.68122,-25.25952 -20.37679,-25.30195 -41.78904,-49.76001 -62.43284,-74.84328 -12.35388,-15.13211 -25.66365,-29.53319 -37.28148,-45.23026 -0.52985,-2.05642 2.86654,-3.69418 3.654,-5.56565 31.96174,-38.33974 64.34213,-76.33807 95.88301,-115.029656 6.85528,-7.728999 9.20969,-19.302932 5.89652,-29.048238 -4.89662,-10.53004 -16.30376,-18.022392 -28.06497,-17.210294 l -0.70464,-0.0039 -0.0454,-2.5e-4 h -0.006 z"
                id="path1676"
                inkscape:connector-curvature="0"
                transform="matrix(0.26458333,0,0,0.26458333,0,197)"/>
        <path
                style="opacity:0;fill:#ff0000;fill-opacity:0.94285715;stroke:#464646;stroke-width:0.70465183;stroke-opacity:1"
                d="m 239.22594,24.225396 c -10.25357,1.280712 -17.62132,9.507105 -23.67395,17.165847 -32.63529,39.432333 -65.47316,78.693587 -98.10404,118.121477 -6.72212,9.28424 -16.73078,17.96218 -16.94758,30.30998 -0.708781,10.0389 5.34477,18.68359 11.74648,25.76863 35.73369,42.98547 71.20516,86.1755 107.25383,128.90004 5.71353,6.91024 13.41561,13.71507 23.01456,13.09213 12.03957,-0.59901 24.54981,-9.00273 27.17451,-21.18084 1.57204,-8.91917 -0.55834,-18.4321 -6.68122,-25.25952 -20.37679,-25.30195 -41.78904,-49.76001 -62.43284,-74.84328 -12.35388,-15.13211 -25.66365,-29.53319 -37.28148,-45.23026 -0.52985,-2.05642 2.86654,-3.69418 3.654,-5.56565 31.96174,-38.33974 64.34213,-76.33807 95.88301,-115.029656 6.85528,-7.728999 9.20969,-19.302932 5.89652,-29.048238 -4.89662,-10.53004 -16.30376,-18.022392 -28.06497,-17.210294 l -0.70464,-0.0039 -0.0454,-2.5e-4 h -0.006 z"
                id="path1678"
                inkscape:connector-curvature="0"
                transform="matrix(0.26458333,0,0,0.26458333,0,197)"/>
        <path
                style="opacity:0;fill:#00ffff;fill-opacity:0.94285715;stroke:#464646;stroke-width:0.70465183;stroke-opacity:1"
                d="m 230.94078,18.423028 c -9.53534,-0.07556 -17.47851,6.337031 -22.92183,13.620975 -32.60014,38.426286 -64.53115,77.408597 -96.83243,116.081607 -6.73904,9.03529 -15.351116,17.1053 -19.598892,27.72929 -1.476632,7.40335 -1.27637,15.62753 3.04294,22.12772 6.128262,10.4519 15.182462,18.82502 22.520892,28.41 30.82751,36.8513 61.26099,74.01606 92.25704,110.72546 6.56682,8.4884 18.19466,14.93097 28.94351,10.81224 12.0553,-3.09756 22.05983,-14.73045 20.56702,-27.564 -0.56328,-12.18321 -10.46482,-20.75876 -17.30525,-29.85549 -28.46012,-34.04697 -57.17414,-67.90817 -85.55877,-102.00109 -1.37618,-2.1231 -4.90061,-4.82156 -1.69557,-7.15387 26.81982,-32.81619 54.40486,-65.0407 81.47032,-97.652583 7.29141,-8.971812 15.72185,-17.393178 20.901,-27.82774 5.04705,-11.205001 1.63373,-26.203152 -9.59151,-32.26697 -4.77719,-3.243231 -10.36555,-5.347585 -16.19847,-5.185549 z"
                id="path1699"
                inkscape:connector-curvature="0"
                transform="matrix(0.26458333,0,0,0.26458333,0,197)"/>
        <path
                style="fill:#1ecfff;stroke-width:0.21661815;fill-opacity:1"
                d="m 46.182155,294.13019 c -2.460062,-0.59146 -4.032352,-1.57529 -5.186096,-3.24509 -1.462523,-2.11669 -1.424877,-1.70183 -1.554648,-17.13181 l -0.117731,-13.99805 -0.551366,-0.92328 c -0.340136,-0.56957 -0.891065,-1.09772 -1.438068,-1.3786 -0.873725,-0.44865 -1.09715,-0.457 -15.267377,-0.5705 -14.7778138,-0.11836 -14.7986788,-0.11964 -16.6488228,-1.02448 -2.99483,-1.46466 -4.44681399,-5.04785 -3.849728,-9.50032 0.452351,-3.37318 2.082173,-5.61287 4.868503,-6.69026 1.244605,-0.48125 1.304224,-0.4835 15.6300478,-0.59032 15.844859,-0.11815 15.440186,-0.0826 16.451916,-1.4447 0.262739,-0.35372 0.576213,-1.14108 0.696611,-1.74967 0.129032,-0.65225 0.218905,-6.30088 0.218905,-13.75854 0,-13.77592 0.01619,-13.98225 1.271111,-16.19259 0.326054,-0.57429 1.074281,-1.45914 1.662727,-1.96633 3.490431,-3.00841 11.587338,-2.88894 15.181655,0.22402 1.027143,0.88959 2.067311,2.81691 2.436686,4.51492 0.162845,0.7486 0.244902,5.42308 0.245725,13.99806 8.85e-4,8.69102 0.08013,13.14655 0.244045,13.71255 0.310498,1.07212 1.41224,2.1283 2.530616,2.42596 0.590041,0.15704 5.207833,0.23315 14.193475,0.23395 8.949239,8.5e-4 13.703532,0.0788 14.491297,0.23786 2.792608,0.56377 4.810349,2.11123 5.734728,4.39814 0.677429,1.67596 0.853354,5.99562 0.316306,7.7666 -0.699768,2.30757 -2.212064,3.93595 -4.462512,4.80506 l -1.301081,0.50247 -14.380676,0.1064 c -13.484252,0.0998 -14.432666,0.13117 -15.214687,0.50371 -0.983866,0.4687 -1.567693,1.19187 -1.905163,2.35989 -0.166829,0.57741 -0.245509,4.9542 -0.246348,13.70399 -6.64e-4,7.85202 -0.08913,13.29991 -0.227058,13.99713 -0.696855,3.52255 -3.21354,6.01326 -6.809474,6.73919 -1.535137,0.30991 -5.610658,0.27193 -7.013518,-0.0654 z"
                id="path6159"
                inkscape:connector-curvature="0"/>
    </g>
</svg>
