<?xml version="1.0" encoding="UTF-8" standalone="no"?>
<!-- Created with Inkscape (http://www.inkscape.org/) -->

<svg
        xmlns:dc="http://purl.org/dc/elements/1.1/"
        xmlns:cc="http://creativecommons.org/ns#"
        xmlns:rdf="http://www.w3.org/1999/02/22-rdf-syntax-ns#"
        xmlns="http://www.w3.org/2000/svg"
        xmlns:sodipodi="http://sodipodi.sourceforge.net/DTD/sodipodi-0.dtd"
        xmlns:inkscape="http://www.inkscape.org/namespaces/inkscape"
        width="164mm"
        height="152mm"
        viewBox="0 0 164 152"
        version="1.1"
        id="svg1686"
        inkscape:version="0.92.4 (5da689c313, 2019-01-14)"
        sodipodi:docname="search-icon.svg">
  <defs
          id="defs1680"/>
  <sodipodi:namedview
          id="base"
          pagecolor="#ffffff"
          bordercolor="#666666"
          borderopacity="1.0"
          inkscape:pageopacity="0.0"
          inkscape:pageshadow="2"
          inkscape:zoom="1.003484"
          inkscape:cx="397.23003"
          inkscape:cy="276.43413"
          inkscape:document-units="mm"
          inkscape:current-layer="layer1"
          showgrid="false"
          inkscape:window-width="2400"
          inkscape:window-height="1271"
          inkscape:window-x="198"
          inkscape:window-y="-11"
          inkscape:window-maximized="1"/>
  <metadata
          id="metadata1683">
    <rdf:RDF>
      <cc:Work
              rdf:about="">
        <dc:format>image/svg+xml</dc:format>
        <dc:type
                rdf:resource="http://purl.org/dc/dcmitype/StillImage"/>
        <dc:title></dc:title>
      </cc:Work>
    </rdf:RDF>
  </metadata>
  <g
          inkscape:label="Layer 1"
          inkscape:groupmode="layer"
          id="layer1"
          transform="translate(0,-145)">
    <path
            style="fill:#1ecfff;fill-opacity:1;stroke-width:0.30413908"
            d="m 151.88353,294.3457 c -1.58134,-0.71727 -6.41861,-4.29857 -11.86385,-8.78351 -9.82854,-8.09521 -13.32817,-10.65662 -14.56,-10.65662 -0.20261,0 -1.35488,0.85779 -2.56061,1.90623 -10.50132,9.13123 -25.97899,15.8073 -40.067235,17.28242 -4.85917,0.50879 -15.895091,0.18294 -20.063488,-0.59241 C 55.173643,292.08915 49.852,290.30476 42.173231,286.59613 34.758316,283.01491 29.549373,279.3614 23.576188,273.5523 12.272259,262.55889 5.1579412,249.03506 2.2088038,232.93437 1.2982084,227.96303 1.0705484,216.96832 1.7679709,211.64464 3.9756703,194.79246 11.086889,180.25726 22.906695,168.43746 c 11.239752,-11.23975 24.846451,-18.17617 40.926139,-20.86331 4.790445,-0.80054 17.715847,-0.80054 22.506292,0 16.079684,2.68714 29.686374,9.62356 40.926134,20.86331 11.23975,11.23975 18.17618,24.84644 20.86329,40.92614 0.78051,4.67048 0.78396,18.03436 0.006,22.50628 -1.63818,9.41464 -4.67082,17.85992 -9.34881,26.03457 l -1.54253,2.69553 0.82424,1.08063 c 0.45333,0.59435 1.93346,1.99781 3.28918,3.1188 7.20209,5.95508 16.11176,13.55311 18.07293,15.4123 1.22571,1.16199 2.57852,2.70987 3.00627,3.43977 0.68264,1.16485 0.7598,1.57582 0.63107,3.36182 -0.34215,4.74721 -3.56318,7.9521 -7.99216,7.9521 -1.18627,0 -2.30292,-0.21685 -3.19104,-0.6197 z M 84.731262,277.06757 c 13.505564,-2.73131 26.693328,-10.6013 34.456488,-20.56242 5.94696,-7.63067 10.14838,-16.18947 11.69179,-23.81762 1.92307,-9.50454 1.26915,-18.90658 -2.02412,-29.10259 -3.03223,-9.3878 -7.7584,-17.06026 -14.80035,-24.02699 -5.60153,-5.54168 -11.14765,-9.15901 -18.019839,-11.75307 -20.046272,-7.56686 -41.450899,-4.13378 -57.445941,9.21374 -12.740009,10.63127 -19.984184,25.22689 -20.733125,41.77328 -0.475857,10.51314 2.460704,22.10726 7.873385,31.08569 8.874033,14.72004 23.882205,24.86172 40.848878,27.60337 4.139324,0.66887 13.900486,0.44659 18.152834,-0.41339 z"
            id="path6011"
            inkscape:connector-curvature="0"/>
  </g>
</svg>
