<?xml version="1.0" encoding="UTF-8" standalone="no"?>
<!-- Created with Inkscape (http://www.inkscape.org/) -->

<svg
        xmlns:dc="http://purl.org/dc/elements/1.1/"
        xmlns:cc="http://creativecommons.org/ns#"
        xmlns:rdf="http://www.w3.org/1999/02/22-rdf-syntax-ns#"
        xmlns="http://www.w3.org/2000/svg"
        xmlns:sodipodi="http://sodipodi.sourceforge.net/DTD/sodipodi-0.dtd"
        xmlns:inkscape="http://www.inkscape.org/namespaces/inkscape"
        width="164mm"
        height="152mm"
        viewBox="0 0 164 152"
        version="1.1"
        id="svg1686"
        inkscape:version="0.92.4 (5da689c313, 2019-01-14)"
        sodipodi:docname="user-icon.svg">
  <defs
          id="defs1680"/>
  <sodipodi:namedview
          id="base"
          pagecolor="#ffffff"
          bordercolor="#666666"
          borderopacity="1.0"
          inkscape:pageopacity="0.0"
          inkscape:pageshadow="2"
          inkscape:zoom="1.003484"
          inkscape:cx="397.23003"
          inkscape:cy="273.87145"
          inkscape:document-units="mm"
          inkscape:current-layer="layer1"
          showgrid="false"
          inkscape:window-width="2400"
          inkscape:window-height="1271"
          inkscape:window-x="198"
          inkscape:window-y="-11"
          inkscape:window-maximized="1"/>
  <metadata
          id="metadata1683">
    <rdf:RDF>
      <cc:Work
              rdf:about="">
        <dc:format>image/svg+xml</dc:format>
        <dc:type
                rdf:resource="http://purl.org/dc/dcmitype/StillImage"/>
        <dc:title></dc:title>
      </cc:Work>
    </rdf:RDF>
  </metadata>
  <g
          inkscape:label="Layer 1"
          inkscape:groupmode="layer"
          id="layer1"
          transform="translate(0,-145)">
    <path
            style="fill:#1ecfff;stroke-width:0.41848108;fill-opacity:1"
            d="m 16.577964,293.39316 c -0.838136,-0.48601 -1.94038,-1.6247 -2.449427,-2.53043 -0.888981,-1.58173 -0.917871,-1.9721 -0.731381,-9.88264 0.221725,-9.40504 0.703758,-11.6894 3.888256,-18.42647 3.007665,-6.36301 6.729925,-10.87964 13.288603,-16.12457 3.007506,-2.40509 10.683881,-6.18668 15.147586,-7.46213 l 3.347847,-0.95659 h 34.106199 34.106213 l 3.76633,1.15523 c 15.24989,4.67759 26.37594,15.68357 30.77213,30.44009 0.78548,2.63651 0.96637,4.45009 1.13086,11.33693 0.18471,7.73263 0.14552,8.29689 -0.68929,9.93331 -2.27959,4.46839 -9.8993,4.57617 -12.109,0.17127 -0.60603,-1.20809 -0.84096,-2.89597 -1.03301,-7.4224 -0.28889,-6.80723 -1.24896,-11.10445 -3.44818,-15.43341 -4.49347,-8.84492 -12.4343,-14.57711 -22.36543,-16.14472 -3.84627,-0.60711 -56.445074,-0.5806 -60.390331,0.0303 -3.447505,0.53395 -7.638892,1.95622 -10.59643,3.59567 -2.709113,1.50174 -8.814395,7.65679 -10.711009,10.7983 -2.956888,4.89775 -4.509308,11.57225 -4.509308,19.38741 0,2.80085 -0.17928,3.83009 -0.886294,5.08804 -1.784611,3.17528 -6.370238,4.33974 -9.634934,2.44667 z m 59.065135,-61.92982 c -3.572276,-0.5916 -10.048653,-2.95938 -13.666845,-4.99661 -4.596494,-2.58807 -12.585011,-10.57658 -15.173083,-15.17308 -2.131368,-3.78537 -4.406287,-10.14954 -5.034862,-14.08522 -0.557772,-3.49238 -0.557772,-10.736 0,-14.22836 0.628575,-3.93568 2.903494,-10.29986 5.034862,-14.08523 2.588072,-4.59648 10.576589,-12.58501 15.173083,-15.17309 3.785372,-2.13136 10.149548,-4.40628 14.085225,-5.03484 3.492354,-0.55778 10.735993,-0.55778 14.228344,0 3.935684,0.62856 10.299857,2.90348 14.085237,5.03484 4.59647,2.58808 12.585,10.57661 15.17307,15.17309 2.13137,3.78537 4.40629,10.14955 5.03486,14.08523 0.55777,3.49236 0.55777,10.73598 0,14.22836 -0.62857,3.93568 -2.90349,10.29985 -5.03486,14.08522 -2.58807,4.5965 -10.5766,12.58501 -15.17307,15.17308 -3.78538,2.13137 -10.149553,4.4063 -14.085237,5.03486 -3.241206,0.51766 -11.418951,0.49631 -14.646724,-0.0383 z m 14.437493,-14.36695 c 4.918552,-1.2741 8.471165,-3.39364 12.587358,-7.50984 5.83793,-5.83794 8.29885,-11.61814 8.29885,-19.49231 0,-7.87416 -2.46092,-13.65436 -8.29885,-19.49229 -5.83794,-5.83794 -11.618117,-8.29886 -19.492303,-8.29886 -7.874171,0 -13.654367,2.46092 -19.492291,8.29886 -5.837939,5.83793 -8.298854,11.61813 -8.298854,19.49229 0,7.26098 2.366523,13.26847 7.313543,18.5657 4.693071,5.02529 9.0204,7.50955 15.455829,8.87297 3.214931,0.6811 8.335723,0.49369 11.926718,-0.43652 z"
            id="path6053"
            inkscape:connector-curvature="0"/>
  </g>
</svg>
