<?xml version="1.0" encoding="UTF-8" standalone="no"?>
<!-- Created with Inkscape (http://www.inkscape.org/) -->

<svg
        xmlns:dc="http://purl.org/dc/elements/1.1/"
        xmlns:cc="http://creativecommons.org/ns#"
        xmlns:rdf="http://www.w3.org/1999/02/22-rdf-syntax-ns#"
        xmlns="http://www.w3.org/2000/svg"
        xmlns:sodipodi="http://sodipodi.sourceforge.net/DTD/sodipodi-0.dtd"
        xmlns:inkscape="http://www.inkscape.org/namespaces/inkscape"
        width="100mm"
        height="100mm"
        viewBox="0 0 100 100"
        version="1.1"
        id="svg1055"
        inkscape:version="0.92.4 (5da689c313, 2019-01-14)"
        sodipodi:docname="user-icon.svg">
  <defs
          id="defs1049"/>
  <sodipodi:namedview
          id="base"
          pagecolor="#ffffff"
          bordercolor="#666666"
          borderopacity="1.0"
          inkscape:pageopacity="0.0"
          inkscape:pageshadow="2"
          inkscape:zoom="1.4191406"
          inkscape:cx="145.06363"
          inkscape:cy="37.206243"
          inkscape:document-units="mm"
          inkscape:current-layer="layer1"
          showgrid="false"
          inkscape:window-width="2400"
          inkscape:window-height="1271"
          inkscape:window-x="198"
          inkscape:window-y="-11"
          inkscape:window-maximized="1"/>
  <metadata
          id="metadata1052">
    <rdf:RDF>
      <cc:Work
              rdf:about="">
        <dc:format>image/svg+xml</dc:format>
        <dc:type
                rdf:resource="http://purl.org/dc/dcmitype/StillImage"/>
        <dc:title></dc:title>
      </cc:Work>
    </rdf:RDF>
  </metadata>
  <g
          inkscape:label="Layer 1"
          inkscape:groupmode="layer"
          id="layer1"
          transform="translate(0,-197)">
    <path
            style="fill:#1ecfff;stroke-width:0.2067561;fill-opacity:0.94285715"
            d="m 17.79875,279.18874 c -0.373194,-0.18394 -0.884916,-0.62376 -1.137158,-0.97738 -0.422358,-0.59211 -0.464212,-0.92088 -0.529301,-4.1578 -0.08114,-4.0352 0.120118,-5.53643 1.118609,-8.34393 2.491332,-7.00496 8.520047,-12.24702 15.860791,-13.79119 2.092333,-0.44014 32.940003,-0.44014 35.032335,0 8.387044,1.76426 14.949919,8.32714 16.714187,16.71418 0.438113,2.08272 0.412876,8.21752 -0.03771,9.16706 -0.495859,1.04495 -1.395473,1.59377 -2.77618,1.69364 -1.40793,0.10184 -2.467272,-0.32549 -3.136403,-1.2652 -0.386006,-0.54209 -0.475587,-1.0517 -0.622456,-3.54105 -0.09436,-1.59931 -0.318158,-3.60563 -0.497335,-4.4585 -1.156602,-5.50532 -5.670181,-10.00269 -11.343427,-11.3027 -1.517524,-0.34773 -2.823048,-0.37902 -15.816841,-0.37902 -12.993794,0 -14.299318,0.0313 -15.816842,0.37902 -5.673247,1.30001 -10.186824,5.79738 -11.343426,11.3027 -0.179177,0.85287 -0.402978,2.85919 -0.497336,4.4585 -0.191972,3.2538 -0.435987,3.87183 -1.780626,4.5099 -0.900394,0.42727 -2.515261,0.42335 -3.390879,-0.008 z m 27.516798,-29.3204 c -2.079404,-0.53747 -4.842833,-1.75093 -6.40524,-2.81263 -1.427549,-0.97006 -4.296763,-3.79785 -5.365928,-5.28845 -1.265867,-1.76485 -2.493762,-4.47791 -3.089467,-6.82625 -0.427186,-1.68401 -0.502664,-2.47033 -0.502664,-5.23663 0,-2.76631 0.07548,-3.55262 0.502664,-5.23664 0.989101,-3.89915 2.734192,-6.874 5.729959,-9.76785 2.064888,-1.99463 3.14739,-2.75506 5.474089,-3.84539 2.932292,-1.37412 5.150855,-1.82573 8.968898,-1.82573 3.818042,0 6.036606,0.45161 8.968897,1.82573 2.326699,1.09033 3.409201,1.85076 5.474089,3.84539 2.995767,2.89385 4.740859,5.8687 5.72996,9.76785 0.427185,1.68402 0.502663,2.47033 0.502663,5.23664 0,3.81804 -0.451617,6.0366 -1.825735,8.96889 -1.090328,2.3267 -1.850756,3.40921 -3.845392,5.47409 -2.893846,2.99577 -5.868698,4.74086 -9.767849,5.72996 -1.706647,0.43293 -2.444002,0.50126 -5.314833,0.4925 -2.816047,-0.009 -3.62823,-0.0864 -5.234111,-0.50148 z m 8.485388,-6.92348 c 2.717408,-0.695 4.140448,-1.53245 6.337703,-3.7297 1.460312,-1.46031 2.138635,-2.32183 2.644233,-3.35836 1.470393,-3.01445 1.854837,-6.3173 1.085469,-9.3255 -0.694996,-2.71741 -1.532447,-4.14045 -3.729702,-6.3377 -2.197255,-2.19726 -3.620295,-3.03471 -6.337703,-3.72971 -3.0082,-0.76936 -6.311046,-0.38492 -9.325502,1.08547 -1.949598,0.95098 -5.051614,4.05299 -6.002588,6.00259 -1.953786,4.00546 -1.953786,8.29939 0,12.30485 0.951915,1.95153 4.052868,5.05154 6.006208,6.00439 3.016849,1.47164 6.308689,1.85432 9.321882,1.08367 z"
            id="path1076"
            inkscape:connector-curvature="0"/>
  </g>
</svg>
